# xmcd CD database file
#
# Track frame offsets:
#	150
#	27227
#	55077
#
# Disc length: 1091 seconds
#
# Revision: 0
# Processed by: cddbd v1.5.1PL2 Copyright (c) Steve Scherf et al.
# Submitted via: CDex 1.51
#
DISCID=1c044103
DTITLE=時任三郎 - 君が愛を語れ
DYEAR=1992
DGENRE=JPop
TTITLE0=君が愛を語れ
TTITLE1=REASON
TTITLE2=君が愛を語れ（オリジナルカラオケ）
EXTD=YEAR: 1992
EXTT0=
EXTT1=
EXTT2=
PLAYORDER=
